<svg width="30" height="30" viewBox="0 0 30 30" fill="none" xmlns="http://www.w3.org/2000/svg">
<path d="M9 24C10.1046 24 11 23.1046 11 22C11 20.8954 10.1046 20 9 20C7.89543 20 7 20.8954 7 22C7 23.1046 7.89543 24 9 24Z" stroke="#F0434E" stroke-width="1.5" stroke-linecap="round" stroke-linejoin="round"/>
<path d="M20.9999 10C22.1044 10 22.9999 9.10457 22.9999 8C22.9999 6.89543 22.1044 6 20.9999 6C19.8953 6 18.9999 6.89543 18.9999 8C18.9999 9.10457 19.8953 10 20.9999 10Z" stroke="#F0434E" stroke-width="1.5" stroke-linecap="round" stroke-linejoin="round"/>
<path d="M14.9996 22H19.4996C20.4279 22 21.3181 21.6312 21.9745 20.9749C22.6309 20.3185 22.9996 19.4282 22.9996 18.5C22.9996 17.5717 22.6309 16.6815 21.9745 16.0251C21.3181 15.3687 20.4279 15 19.4996 15H11.4996C10.5714 15 9.68114 14.6312 9.02476 13.9749C8.36838 13.3185 7.99963 12.4283 7.99963 11.5C7.99963 10.5717 8.36838 9.6815 9.02476 9.02513C9.68114 8.36875 10.5714 8 11.4996 8H14.9996" stroke="#F0434E" stroke-width="1.5" stroke-linecap="round" stroke-linejoin="round"/>
</svg>
