<?xml version="1.0" encoding="utf-8"?>
<!-- Generator: Adobe Illustrator 23.0.3, SVG Export Plug-In . SVG Version: 6.00 Build 0)  -->
<svg version="1.1" id="Layer_1" xmlns="http://www.w3.org/2000/svg" xmlns:xlink="http://www.w3.org/1999/xlink" x="0px" y="0px"
	 viewBox="0 0 24 24" style="enable-background:new 0 0 24 24;" xml:space="preserve">
<g id="icon-phone">
	<path d="M18.4,21.8c-0.1,0-0.1,0-0.2,0c-2.8-0.3-5.4-1.3-7.8-2.8c-2.2-1.4-4-3.2-5.4-5.4c-1.5-2.3-2.5-5-2.8-7.8c0-0.4,0-0.7,0.1-1
		c0.1-0.3,0.3-0.6,0.5-0.9c0.2-0.3,0.5-0.5,0.8-0.6c0.3-0.1,0.6-0.2,1-0.2h2.6c0.6,0,1.2,0.2,1.6,0.6c0.5,0.4,0.8,0.9,0.8,1.5
		c0.1,0.8,0.3,1.5,0.6,2.3c0.2,0.4,0.2,0.9,0.1,1.4c-0.1,0.5-0.3,0.9-0.7,1.2l-0.7,0.7c1,1.7,2.4,3.1,4.1,4.1l0.7-0.7
		c0.3-0.3,0.8-0.6,1.2-0.7c0.5-0.1,0.9-0.1,1.4,0.1c0.7,0.3,1.5,0.5,2.3,0.6c0.6,0.1,1.2,0.4,1.5,0.9c0.4,0.5,0.6,1,0.6,1.6v2.6
		c0,0.3-0.1,0.7-0.2,1c-0.1,0.3-0.3,0.6-0.6,0.8c-0.3,0.2-0.6,0.4-0.9,0.5C18.9,21.7,18.7,21.8,18.4,21.8z M7.3,4.6
		C7.3,4.6,7.3,4.6,7.3,4.6H4.7c-0.1,0-0.3,0-0.4,0.1S4.1,4.8,4,4.9C3.9,5,3.8,5.1,3.8,5.3c0,0.1-0.1,0.3,0,0.4
		c0.3,2.5,1.1,5,2.5,7.1c1.3,2,3,3.7,4.9,4.9c2.1,1.4,4.6,2.3,7.1,2.5c0.1,0,0.3,0,0.4,0c0.1,0,0.2-0.1,0.3-0.2
		c0.1-0.1,0.2-0.2,0.2-0.3c0.1-0.1,0.1-0.3,0.1-0.4v-2.6c0,0,0,0,0,0c0-0.2-0.1-0.5-0.2-0.6c-0.2-0.2-0.4-0.3-0.6-0.3
		c-0.9-0.1-1.7-0.3-2.6-0.6c-0.2-0.1-0.4-0.1-0.5,0c-0.2,0-0.3,0.1-0.5,0.3l-1.1,1.1c-0.2,0.2-0.6,0.3-0.9,0.1
		c-2.3-1.3-4.1-3.2-5.4-5.4c-0.2-0.3-0.1-0.7,0.1-0.9L8.7,9C8.8,8.9,8.9,8.7,9,8.6c0-0.2,0-0.4,0-0.5C8.6,7.2,8.4,6.3,8.3,5.4
		c0-0.2-0.1-0.4-0.3-0.6C7.8,4.7,7.5,4.6,7.3,4.6z M17.5,10.6c-0.4,0-0.7-0.2-0.7-0.6c-0.1-0.7-0.5-1.3-1-1.8
		c-0.5-0.5-1.1-0.8-1.8-1c-0.4-0.1-0.7-0.5-0.6-0.9c0.1-0.4,0.5-0.7,0.9-0.6c1,0.2,1.9,0.7,2.6,1.4c0.7,0.7,1.2,1.6,1.4,2.6
		c0.1,0.4-0.2,0.8-0.6,0.9C17.6,10.6,17.6,10.6,17.5,10.6z M21,10.6c-0.4,0-0.7-0.3-0.7-0.7c-0.2-1.6-0.9-3-2-4.2
		c-1.1-1.1-2.6-1.8-4.2-2c-0.4,0-0.7-0.4-0.7-0.8c0-0.4,0.4-0.7,0.8-0.7c1.9,0.2,3.7,1.1,5.1,2.4c1.4,1.4,2.2,3.2,2.4,5.1
		C21.8,10.2,21.5,10.5,21,10.6C21,10.6,21,10.6,21,10.6z"/>
</g>
<g id="icon-route">
	<path d="M6,21.8c-1.5,0-2.8-1.2-2.8-2.8s1.2-2.8,2.8-2.8s2.8,1.2,2.8,2.8S7.5,21.8,6,21.8z M6,17.8c-0.7,0-1.3,0.6-1.3,1.3
		s0.6,1.3,1.3,1.3s1.3-0.6,1.3-1.3S6.7,17.8,6,17.8z"/>
	<path d="M18,7.8c-1.5,0-2.8-1.2-2.8-2.8s1.2-2.8,2.8-2.8s2.8,1.2,2.8,2.8S19.5,7.8,18,7.8z M18,3.8c-0.7,0-1.3,0.6-1.3,1.3
		s0.6,1.3,1.3,1.3s1.3-0.6,1.3-1.3S18.7,3.8,18,3.8z"/>
	<path d="M16.5,19.8H12c-0.4,0-0.8-0.3-0.8-0.8s0.3-0.8,0.8-0.8h4.5c0.7,0,1.4-0.3,1.9-0.8s0.8-1.2,0.8-1.9c0-0.7-0.3-1.4-0.8-1.9
		c-0.5-0.5-1.2-0.8-1.9-0.8h-8c-1.1,0-2.2-0.4-3-1.2c-0.8-0.8-1.2-1.9-1.2-3s0.4-2.2,1.2-3c0.8-0.8,1.9-1.2,3-1.2H12
		c0.4,0,0.7,0.3,0.7,0.8S12.4,5.8,12,5.8H8.5C7.8,5.8,7.1,6,6.6,6.6C6,7.1,5.7,7.8,5.7,8.5S6,9.9,6.6,10.4c0.5,0.5,1.2,0.8,1.9,0.8
		h8c1.1,0,2.2,0.5,3,1.2c0.8,0.8,1.2,1.9,1.2,3c0,1.1-0.5,2.2-1.2,3S17.6,19.8,16.5,19.8z"/>
</g>
<g id="icon-logout">
	<path d="M9,20H5c-0.3,0-0.5-0.1-0.7-0.3C4.1,19.5,4,19.3,4,19V5c0-0.3,0.1-0.5,0.3-0.7C4.5,4.1,4.7,4,5,4h4c0.6,0,1-0.4,1-1
		S9.6,2,9,2H5C4.2,2,3.4,2.3,2.9,2.9C2.3,3.4,2,4.2,2,5v14c0,0.8,0.3,1.6,0.9,2.1C3.4,21.7,4.2,22,5,22h4c0.6,0,1-0.4,1-1
		S9.6,20,9,20z"/>
	<path d="M21.9,12.4c0.1-0.2,0.1-0.5,0-0.8c-0.1-0.1-0.1-0.2-0.2-0.3l-5-5c-0.4-0.4-1-0.4-1.4,0s-0.4,1,0,1.4l3.3,3.3H9
		c-0.6,0-1,0.4-1,1s0.4,1,1,1h9.6l-3.3,3.3c-0.4,0.4-0.4,1,0,1.4c0.2,0.2,0.5,0.3,0.7,0.3s0.5-0.1,0.7-0.3l5-5
		C21.8,12.6,21.9,12.5,21.9,12.4z"/>
</g>
<g id="icon-arrow-left">
	<path d="M20.3,10.8H6.6l6.3-6.3c0.5-0.5,0.5-1.2,0-1.7s-1.2-0.5-1.7,0l-8.3,8.3l0,0c-0.1,0.1-0.2,0.2-0.3,0.4
		c-0.1,0.3-0.1,0.6,0,0.9c0.1,0.1,0.1,0.3,0.3,0.4l0,0l8.3,8.3c0.2,0.2,0.5,0.3,0.8,0.3s0.6-0.1,0.8-0.3c0.5-0.5,0.5-1.2,0-1.7
		l-6.3-6.3h13.8c0.7,0,1.2-0.5,1.2-1.2S21,10.8,20.3,10.8z"/>
</g>
<g id="icon-cog">
	<path d="M15,21.9l4-2.3c0.2-0.1,0.3-0.3,0.4-0.5c0.1-0.2,0-0.4-0.1-0.6l-1.1-1.9c0.2-0.2,0.3-0.5,0.5-0.7c0.1-0.2,0.3-0.5,0.4-0.8
		l2.1,0c0.2,0,0.4-0.1,0.6-0.2c0.2-0.2,0.2-0.4,0.2-0.6l0-4.6c0-0.2-0.1-0.4-0.2-0.6c-0.2-0.2-0.4-0.2-0.6-0.2c0,0,0,0,0,0l-2.1,0
		c-0.2-0.5-0.5-1-0.8-1.4l1.1-1.9c0.2-0.4,0.1-0.9-0.3-1.1l-4-2.3C14.8,2,14.6,2,14.4,2c-0.2,0.1-0.4,0.2-0.5,0.4l-1.1,1.9
		c-0.6-0.1-1.1-0.1-1.7,0l-1.1-1.9C10,2.2,9.8,2.1,9.6,2C9.4,2,9.1,2,9,2.1L5,4.5C4.6,4.7,4.5,5.2,4.7,5.6l1.1,1.9
		C5.6,7.7,5.5,7.9,5.3,8.1C5.2,8.4,5.1,8.6,4.9,8.9l-2.1,0C2.4,8.9,2,9.3,2,9.7l0,4.6c0,0.2,0.1,0.4,0.2,0.6
		c0.2,0.2,0.4,0.2,0.6,0.2c0,0,0,0,0,0l2.1,0c0.2,0.5,0.5,1,0.8,1.4l-1.1,1.9c-0.1,0.2-0.1,0.4-0.1,0.6c0.1,0.2,0.2,0.4,0.4,0.5
		l4,2.3C9.2,22,9.3,22,9.4,22c0.3,0,0.6-0.1,0.7-0.4l1.1-1.9c0.6,0.1,1.1,0.1,1.7,0l1.1,1.9c0.1,0.2,0.3,0.3,0.5,0.4
		C14.6,22,14.9,22,15,21.9z M14,18.4c-0.2-0.3-0.5-0.5-0.8-0.4c-0.7,0.1-1.5,0.1-2.2,0c-0.3-0.1-0.7,0.1-0.8,0.4l-0.9,1.7l-2.6-1.5
		l0.9-1.7c0.2-0.3,0.1-0.7-0.1-0.9c-0.5-0.6-0.9-1.2-1.1-1.9c-0.1-0.3-0.4-0.5-0.8-0.5c0,0,0,0,0,0l-1.9,0l0-3l1.9,0
		c0.3,0,0.6-0.2,0.8-0.5c0.1-0.4,0.3-0.7,0.5-1C6.9,8.6,7.1,8.3,7.4,8c0.2-0.3,0.3-0.6,0.1-0.9l-1-1.6l2.6-1.5l1,1.6
		C10.2,5.9,10.5,6,10.9,6c0.7-0.1,1.5-0.1,2.2,0c0.3,0.1,0.7-0.1,0.8-0.4l0.9-1.7l2.6,1.5l-0.9,1.7c-0.2,0.3-0.1,0.7,0.1,0.9
		c0.5,0.6,0.9,1.2,1.1,1.9c0.1,0.3,0.4,0.5,0.8,0.5c0,0,0,0,0,0l1.9,0l0,3l-1.9,0c-0.3,0-0.6,0.2-0.8,0.5c-0.1,0.4-0.3,0.7-0.5,1
		c-0.2,0.3-0.4,0.6-0.6,0.9c-0.2,0.3-0.3,0.6-0.1,0.9l1,1.6l-2.6,1.5L14,18.4z"/>
	<path d="M15.8,14.2c0.6-1,0.7-2.2,0.4-3.3s-1-2.1-2-2.7c-0.7-0.4-1.4-0.6-2.2-0.6c-1.6,0-3,0.8-3.8,2.2c-1.2,2.1-0.5,4.8,1.6,6
		c0.7,0.4,1.4,0.6,2.2,0.6C13.6,16.4,15,15.5,15.8,14.2z M14.4,13.4c-0.5,0.9-1.4,1.4-2.4,1.4c-0.5,0-0.9-0.1-1.4-0.4
		c-1.3-0.8-1.8-2.5-1-3.8C10.1,9.8,11,9.2,12,9.2c0.5,0,0.9,0.1,1.4,0.4c0.6,0.4,1.1,1,1.3,1.7C14.8,12,14.7,12.7,14.4,13.4z"/>
</g>
</svg>
