<svg width="72" height="72" viewBox="0 0 72 72" fill="none" xmlns="http://www.w3.org/2000/svg">
<path d="M47.34 5.53503H13.59L5.71497 16.785H55.215L47.34 5.53503Z" fill="#F8F8F8"/>
<path d="M43.965 46.035C43.965 51.9638 47.8237 57.8925 51.0187 61.785H5.71497V16.785H55.215V34.785C52.2313 34.785 49.3698 35.9703 47.26 38.0801C45.1502 40.1899 43.965 43.0513 43.965 46.035Z" fill="#D6D6D6"/>
<path d="M36.09 16.785H24.84V25.785H36.09V16.785Z" fill="#9E9E9E"/>
<path d="M24.84 16.785H36.09L33.84 5.53503H27.09L24.84 16.785Z" fill="#9E9E9E"/>
<path d="M21.465 57.375H12.465C12.1666 57.375 11.8804 57.2565 11.6695 57.0455C11.4585 56.8346 11.34 56.5484 11.34 56.25C11.34 55.9517 11.4585 55.6655 11.6695 55.4545C11.8804 55.2436 12.1666 55.125 12.465 55.125H21.465C21.7633 55.125 22.0495 55.2436 22.2605 55.4545C22.4714 55.6655 22.59 55.9517 22.59 56.25C22.59 56.5484 22.4714 56.8346 22.2605 57.0455C22.0495 57.2565 21.7633 57.375 21.465 57.375ZM21.465 51.75H12.465C12.1666 51.75 11.8804 51.6315 11.6695 51.4205C11.4585 51.2096 11.34 50.9234 11.34 50.625C11.34 50.3267 11.4585 50.0405 11.6695 49.8295C11.8804 49.6186 12.1666 49.5 12.465 49.5H21.465C21.7633 49.5 22.0495 49.6186 22.2605 49.8295C22.4714 50.0405 22.59 50.3267 22.59 50.625C22.59 50.9234 22.4714 51.2096 22.2605 51.4205C22.0495 51.6315 21.7633 51.75 21.465 51.75ZM66.465 46.035C66.465 56.16 55.215 66.285 55.215 66.285C53.7161 64.8816 52.3141 63.3782 51.0187 61.785C47.8237 57.8925 43.965 51.9638 43.965 46.035C43.965 43.0513 45.1502 40.1899 47.26 38.0801C49.3698 35.9703 52.2313 34.785 55.215 34.785C58.1987 34.785 61.0601 35.9703 63.1699 38.0801C65.2797 40.1899 66.465 43.0513 66.465 46.035Z" fill="#F0434E"/>
<path d="M55.2151 50.445C57.6506 50.445 59.6251 48.4706 59.6251 46.035C59.6251 43.5994 57.6506 41.625 55.2151 41.625C52.7795 41.625 50.8051 43.5994 50.8051 46.035C50.8051 48.4706 52.7795 50.445 55.2151 50.445Z" fill="#E96263"/>
<path d="M39.375 18H5.62505C5.41846 18.0004 5.21575 17.944 5.03914 17.8368C4.86252 17.7296 4.71882 17.5759 4.6238 17.3925C4.53675 17.2146 4.4982 17.017 4.51202 16.8194C4.52585 16.6219 4.59157 16.4315 4.70255 16.2675L12.5775 5.0175C12.6771 4.86223 12.8133 4.73381 12.9742 4.64357C13.1351 4.55333 13.3156 4.50402 13.5 4.5H16.875C17.1734 4.5 17.4596 4.61853 17.6705 4.82951C17.8815 5.04048 18 5.32663 18 5.625C18 5.92337 17.8815 6.20952 17.6705 6.42049C17.4596 6.63147 17.1734 6.75 16.875 6.75H14.085L7.78505 15.75H39.375C39.6734 15.75 39.9596 15.8685 40.1705 16.0795C40.3815 16.2905 40.5 16.5766 40.5 16.875C40.5 17.1734 40.3815 17.4595 40.1705 17.6705C39.9596 17.8815 39.6734 18 39.375 18Z" fill="#212121"/>
<path d="M55.125 18H43.875C43.5766 18 43.2905 17.8815 43.0795 17.6705C42.8685 17.4595 42.75 17.1734 42.75 16.875C42.75 16.5766 42.8685 16.2905 43.0795 16.0795C43.2905 15.8685 43.5766 15.75 43.875 15.75H52.965L46.665 6.75H21.375C21.0766 6.75 20.7905 6.63147 20.5795 6.42049C20.3685 6.20952 20.25 5.92337 20.25 5.625C20.25 5.32663 20.3685 5.04048 20.5795 4.82951C20.7905 4.61853 21.0766 4.5 21.375 4.5H47.25C47.4314 4.5003 47.61 4.54444 47.7706 4.62868C47.9312 4.71291 48.0691 4.83473 48.1725 4.98375L56.0475 16.2338C56.1585 16.3977 56.2242 16.5881 56.238 16.7857C56.2519 16.9832 56.2133 17.1809 56.1263 17.3588C56.0359 17.5485 55.8942 17.7091 55.7173 17.8225C55.5403 17.9358 55.3351 17.9973 55.125 18ZM36 27H24.75C24.4516 27 24.1655 26.8815 23.9545 26.6705C23.7435 26.4595 23.625 26.1734 23.625 25.875V16.875C23.625 16.5766 23.7435 16.2905 23.9545 16.0795C24.1655 15.8685 24.4516 15.75 24.75 15.75H36C36.2984 15.75 36.5845 15.8685 36.7955 16.0795C37.0065 16.2905 37.125 16.5766 37.125 16.875V25.875C37.125 26.1734 37.0065 26.4595 36.7955 26.6705C36.5845 26.8815 36.2984 27 36 27ZM25.875 24.75H34.875V18H25.875V24.75Z" fill="#212121"/>
<path d="M36 18H24.75C24.5838 17.9989 24.42 17.961 24.2702 17.889C24.1204 17.817 23.9884 17.7128 23.8837 17.5837C23.7738 17.4572 23.6935 17.3077 23.6487 17.1461C23.6039 16.9846 23.5958 16.8151 23.625 16.65L25.875 5.39998C25.9276 5.14205 26.069 4.91073 26.2745 4.74628C26.4801 4.58183 26.7368 4.49468 27 4.49998H33.75C34.0132 4.49468 34.2699 4.58183 34.4755 4.74628C34.681 4.91073 34.8224 5.14205 34.875 5.39998L37.125 16.65C37.1572 16.8134 37.1527 16.9819 37.1119 17.1434C37.071 17.3049 36.9948 17.4553 36.8888 17.5837C36.7817 17.7157 36.6461 17.8218 36.4922 17.8939C36.3382 17.966 36.17 18.0023 36 18ZM26.1225 15.75H34.6275L32.8275 6.74998H27.9225L26.1225 15.75ZM50.9287 63H5.625C5.32663 63 5.04048 62.8815 4.82951 62.6705C4.61853 62.4595 4.5 62.1734 4.5 61.875V58.5C4.5 58.2016 4.61853 57.9155 4.82951 57.7045C5.04048 57.4935 5.32663 57.375 5.625 57.375C5.92337 57.375 6.20952 57.4935 6.42049 57.7045C6.63147 57.9155 6.75 58.2016 6.75 58.5V60.75H48.6225C45.6863 56.79 42.75 51.4912 42.75 46.125C42.7372 43.0289 43.8854 40.0404 45.9681 37.7494C48.0508 35.4585 50.9167 34.0314 54 33.75V18H43.875C43.5766 18 43.2905 17.8815 43.0795 17.6705C42.8685 17.4595 42.75 17.1734 42.75 16.875C42.75 16.5766 42.8685 16.2905 43.0795 16.0795C43.2905 15.8685 43.5766 15.75 43.875 15.75H55.125C55.4234 15.75 55.7095 15.8685 55.9205 16.0795C56.1315 16.2905 56.25 16.5766 56.25 16.875V34.875C56.25 35.1734 56.1315 35.4595 55.9205 35.6705C55.7095 35.8815 55.4234 36 55.125 36C52.4397 36 49.8643 37.0667 47.9655 38.9655C46.0667 40.8643 45 43.4397 45 46.125C45 51.75 48.7012 57.375 51.75 61.1662C51.8815 61.3278 51.9655 61.5228 51.9927 61.7293C52.0199 61.9358 51.9892 62.1459 51.904 62.336C51.8189 62.5261 51.6826 62.6889 51.5104 62.8061C51.3382 62.9233 51.1369 62.9905 50.9287 63Z" fill="#212121"/>
<path d="M5.625 49.5C5.32663 49.5 5.04048 49.3815 4.82951 49.1705C4.61853 48.9595 4.5 48.6734 4.5 48.375V16.875C4.5 16.5766 4.61853 16.2905 4.82951 16.0795C5.04048 15.8685 5.32663 15.75 5.625 15.75H39.375C39.6734 15.75 39.9595 15.8685 40.1705 16.0795C40.3815 16.2905 40.5 16.5766 40.5 16.875C40.5 17.1734 40.3815 17.4595 40.1705 17.6705C39.9595 17.8815 39.6734 18 39.375 18H6.75V48.375C6.75 48.6734 6.63147 48.9595 6.42049 49.1705C6.20952 49.3815 5.92337 49.5 5.625 49.5ZM5.625 55.125C5.32663 55.125 5.04048 55.0065 4.82951 54.7955C4.61853 54.5845 4.5 54.2984 4.5 54V52.875C4.5 52.5766 4.61853 52.2905 4.82951 52.0795C5.04048 51.8685 5.32663 51.75 5.625 51.75C5.92337 51.75 6.20952 51.8685 6.42049 52.0795C6.63147 52.2905 6.75 52.5766 6.75 52.875V54C6.75 54.2984 6.63147 54.5845 6.42049 54.7955C6.20952 55.0065 5.92337 55.125 5.625 55.125ZM55.125 67.5C54.8462 67.4993 54.5776 67.395 54.3713 67.2075C52.8295 65.7681 51.3897 64.2231 50.0625 62.5838C46.7212 58.5 42.75 52.3688 42.75 46.125C42.75 42.8429 44.0538 39.6953 46.3746 37.3746C48.6953 35.0538 51.8429 33.75 55.125 33.75C58.4071 33.75 61.5547 35.0538 63.8754 37.3746C66.1962 39.6953 67.5 42.8429 67.5 46.125C67.3391 50.0432 66.1394 53.8482 64.0238 57.15C63.9589 57.2934 63.8647 57.4217 63.7472 57.5264C63.6297 57.6312 63.4915 57.7101 63.3416 57.7581C63.1917 57.8061 63.0334 57.8221 62.8769 57.8051C62.7204 57.7881 62.5692 57.7384 62.4331 57.6593C62.2971 57.5801 62.1791 57.4733 62.0869 57.3458C61.9946 57.2182 61.9302 57.0727 61.8978 56.9187C61.8653 56.7646 61.8655 56.6055 61.8984 56.4516C61.9313 56.2976 61.9962 56.1523 62.0887 56.025C63.9954 53.0607 65.0858 49.6457 65.25 46.125C65.25 43.4397 64.1833 40.8644 62.2845 38.9655C60.3857 37.0667 57.8103 36 55.125 36C52.4397 36 49.8643 37.0667 47.9655 38.9655C46.0667 40.8644 45 43.4397 45 46.125C45 51.75 48.7012 57.375 51.75 61.1662C53.1 62.7975 54.3262 64.08 55.125 64.8225C56.7452 63.1978 58.2489 61.461 59.625 59.625C59.804 59.3863 60.0705 59.2285 60.3659 59.1863C60.6613 59.1441 60.9613 59.221 61.2 59.4C61.4387 59.579 61.5965 59.8455 61.6387 60.1409C61.6809 60.4363 61.604 60.7363 61.425 60.975C59.7564 63.2094 57.8928 65.2913 55.8563 67.1963C55.6574 67.3828 55.3975 67.4907 55.125 67.5Z" fill="#212121"/>
<path d="M55.125 51.75C53.6332 51.75 52.2024 51.1573 51.1475 50.1024C50.0926 49.0475 49.5 47.6168 49.5 46.125C49.5018 45.2538 49.7059 44.395 50.0962 43.6162C50.1557 43.4734 50.244 43.3444 50.3556 43.2372C50.4672 43.1301 50.5997 43.0471 50.7448 42.9935C50.8899 42.9398 51.0445 42.9167 51.1989 42.9255C51.3534 42.9343 51.5044 42.9749 51.6424 43.0447C51.7805 43.1145 51.9027 43.2121 52.0013 43.3312C52.1 43.4504 52.173 43.5886 52.2158 43.7373C52.2587 43.8859 52.2704 44.0418 52.2502 44.1952C52.2301 44.3486 52.1785 44.4962 52.0988 44.6287C51.7735 45.2863 51.6714 46.032 51.8079 46.7528C51.9443 47.4736 52.312 48.1303 52.8551 48.6235C53.3982 49.1167 54.0872 49.4195 54.8178 49.486C55.5484 49.5526 56.2808 49.3793 56.9041 48.9923C57.5273 48.6054 58.0076 48.0259 58.272 47.3416C58.5365 46.6573 58.5708 45.9055 58.3697 45.1999C58.1686 44.4944 57.7431 43.8736 57.1577 43.4315C56.5722 42.9895 55.8586 42.7502 55.125 42.75H54.9562C54.6579 42.7828 54.3587 42.6957 54.1245 42.508C53.8903 42.3202 53.7403 42.0471 53.7075 41.7487C53.6747 41.4503 53.7617 41.1512 53.9495 40.917C54.1373 40.6828 54.4104 40.5328 54.7088 40.5C54.8473 40.4888 54.9865 40.4888 55.125 40.5C56.6168 40.5 58.0476 41.0926 59.1025 42.1475C60.1574 43.2024 60.75 44.6331 60.75 46.125C60.75 47.6168 60.1574 49.0475 59.1025 50.1024C58.0476 51.1573 56.6168 51.75 55.125 51.75Z" fill="#212121"/>
</svg>
