<svg width="72" height="72" viewBox="0 0 72 72" fill="none" xmlns="http://www.w3.org/2000/svg">
<path d="M70.5601 42.0525V43.1325H57.0601C55.7472 43.1325 54.4882 42.611 53.5599 41.6827C52.6316 40.7544 52.1101 39.4953 52.1101 38.1825V31.7025H64.3501L70.5601 42.0525ZM44.5726 16.02V59.1525H24.9976C24.9976 57.231 24.2343 55.3882 22.8756 54.0295C21.5169 52.6708 19.6741 51.9075 17.7526 51.9075C15.8311 51.9075 13.9883 52.6708 12.6296 54.0295C11.2709 55.3882 10.5076 57.231 10.5076 59.1525H1.50757V16.02H12.5101C12.8535 19.1677 14.0003 22.1742 15.8403 24.751C17.6803 27.3278 20.1518 29.3884 23.0176 30.735C25.8804 29.3872 28.3485 27.3258 30.1847 24.7489C32.0208 22.1719 33.1634 19.166 33.5026 16.02H44.5726Z" fill="#F0434E"/>
<path d="M24.0975 30.6225C21.5054 29.3093 19.2841 27.3668 17.6371 24.9729C15.99 22.579 14.9699 19.8102 14.67 16.92C14.4833 15.7134 14.3781 14.4956 14.355 13.275C15.7277 13.0684 16.9948 12.4174 17.962 11.4217C18.9293 10.426 19.5433 9.14056 19.71 7.76245H28.4625C28.6256 9.13085 29.2298 10.4089 30.1838 11.4035C31.1377 12.398 32.3896 13.055 33.75 13.275C33.7275 14.4957 33.6223 15.7135 33.435 16.92C33.1422 19.8007 32.1348 22.5628 30.5043 24.9556C28.8737 27.3484 26.6715 29.2963 24.0975 30.6225Z" fill="#F0434E"/>
<path d="M27.0001 59.1526C26.7428 57.1443 25.7624 55.2986 24.2425 53.961C22.7226 52.6234 20.7673 51.8855 18.7426 51.8855C16.7179 51.8855 14.7626 52.6234 13.2427 53.961C11.7228 55.2986 10.7424 57.1443 10.4851 59.1526H3.6001V18.1801H12.6001C13.063 21.3379 14.3078 24.3299 16.2215 26.8841C18.1352 29.4383 20.657 31.4737 23.5576 32.8051L24.0076 32.9851L24.4351 32.8051C27.3381 31.477 29.862 29.4427 31.7762 26.8879C33.6903 24.333 34.9337 21.3392 35.3926 18.1801H44.3926V59.1526H27.0001Z" fill="#D6D6D6"/>
<path d="M67.9274 59.1525C67.6701 57.1442 66.6898 55.2986 65.1698 53.9609C63.6499 52.6233 61.6946 51.8855 59.6699 51.8855C57.6452 51.8855 55.6899 52.6233 54.17 53.9609C52.6501 55.2986 51.6697 57.1442 51.4124 59.1525H46.7324V28.71H57.1499C58.3569 28.7064 59.5493 28.9734 60.6396 29.4912C61.7298 30.0091 62.6901 30.7647 63.4499 31.7025H52.0649V39.2625C52.0649 40.8618 52.7002 42.3955 53.8311 43.5264C54.9619 44.6572 56.4957 45.2925 58.0949 45.2925H70.5599V59.1525H67.9274Z" fill="#F0434E"/>
<path d="M59.6699 66.3975C58.4506 66.3975 57.2586 66.0359 56.2448 65.3585C55.231 64.6811 54.4408 63.7183 53.9742 62.5917C53.5076 61.4652 53.3855 60.2257 53.6233 59.0298C53.8612 57.8339 54.4484 56.7354 55.3106 55.8732C56.1728 55.011 57.2713 54.4238 58.4672 54.186C59.663 53.9481 60.9026 54.0702 62.0291 54.5368C63.1556 55.0034 64.1185 55.7936 64.7959 56.8074C65.4733 57.8212 65.8349 59.0132 65.8349 60.2325C65.8349 61.8676 65.1854 63.4357 64.0292 64.5918C62.873 65.748 61.3049 66.3975 59.6699 66.3975Z" fill="#F0434E"/>
<path d="M59.5124 61.8075C59.1564 61.8075 58.8084 61.702 58.5124 61.5042C58.2164 61.3064 57.9857 61.0253 57.8494 60.6963C57.7132 60.3674 57.6775 60.0055 57.747 59.6564C57.8164 59.3072 57.9879 58.9865 58.2396 58.7347C58.4913 58.483 58.8121 58.3116 59.1612 58.2421C59.5104 58.1727 59.8723 58.2083 60.2012 58.3445C60.5301 58.4808 60.8113 58.7115 61.009 59.0075C61.2068 59.3035 61.3124 59.6515 61.3124 60.0075C61.3124 60.4849 61.1228 60.9427 60.7852 61.2803C60.4476 61.6179 59.9898 61.8075 59.5124 61.8075Z" fill="white"/>
<path d="M18.8325 66.3975C17.6132 66.3975 16.4212 66.0359 15.4074 65.3585C14.3936 64.6811 13.6034 63.7183 13.1368 62.5917C12.6702 61.4652 12.5481 60.2257 12.7859 59.0298C13.0238 57.8339 13.611 56.7354 14.4732 55.8732C15.3354 55.011 16.4339 54.4238 17.6298 54.186C18.8256 53.9481 20.0652 54.0702 21.1917 54.5368C22.3182 55.0034 23.2811 55.7936 23.9585 56.8074C24.6359 57.8212 24.9975 59.0132 24.9975 60.2325C24.9975 61.8676 24.348 63.4357 23.1918 64.5918C22.0356 65.748 20.4675 66.3975 18.8325 66.3975Z" fill="#F0434E"/>
<path d="M18.675 61.8075C18.319 61.8075 17.971 61.702 17.675 61.5042C17.379 61.3064 17.1483 61.0253 17.012 60.6964C16.8758 60.3675 16.8401 60.0056 16.9096 59.6564C16.979 59.3072 17.1505 58.9865 17.4022 58.7348C17.6539 58.483 17.9747 58.3116 18.3238 58.2421C18.673 58.1727 19.0349 58.2083 19.3638 58.3446C19.6927 58.4808 19.9739 58.7115 20.1716 59.0075C20.3694 59.3035 20.475 59.6515 20.475 60.0075C20.475 60.4849 20.2854 60.9428 19.9478 61.2803C19.6102 61.6179 19.1524 61.8075 18.675 61.8075ZM58.095 43.1325C57.0686 43.1325 56.0843 42.7248 55.3585 41.9991C54.6327 41.2733 54.225 40.2889 54.225 39.2626V33.8625H64.8225L70.38 43.1325H58.095Z" fill="white"/>
<path d="M33.5025 16.02C33.1633 19.166 32.0207 22.1719 30.1845 24.7488C28.3484 27.3258 25.8803 29.3872 23.0175 30.735C20.1517 29.3884 17.6802 27.3278 15.8402 24.751C14.0002 22.1742 12.8534 19.1677 12.51 16.02C12.2595 14.4432 12.169 12.845 12.24 11.25C15.39 11.25 17.1 9.27 17.7525 5.6925H28.26C28.9125 9.18 30.6225 11.25 33.75 11.25C33.8203 12.8443 33.7374 14.4416 33.5025 16.02V16.02Z" stroke="#212121" stroke-width="2" stroke-linecap="round" stroke-linejoin="round" stroke-dasharray="6.72 1.44 12.48 1.44"/>
<path d="M44.5726 16.02V59.1525H24.9976C24.9976 57.231 24.2343 55.3882 22.8756 54.0295C21.5169 52.6708 19.6741 51.9075 17.7526 51.9075C15.8311 51.9075 13.9883 52.6708 12.6296 54.0295C11.2709 55.3882 10.5076 57.231 10.5076 59.1525H1.50757V16.02H12.5101C12.8535 19.1677 14.0003 22.1742 15.8403 24.751C17.6803 27.3278 20.1518 29.3884 23.0176 30.735C25.8804 29.3872 28.3485 27.3258 30.1847 24.7489C32.0208 22.1719 33.1634 19.166 33.5026 16.02H44.5726Z" stroke="#212121" stroke-width="2" stroke-linecap="round" stroke-linejoin="round"/>
<path d="M70.56 43.1325V59.1525H65.835C65.835 57.231 65.0717 55.3882 63.713 54.0295C62.3543 52.6708 60.5115 51.9075 58.59 51.9075C56.6685 51.9075 54.8257 52.6708 53.467 54.0295C52.1083 55.3882 51.345 57.231 51.345 59.1525H44.595V26.55H56.0925C57.7289 26.5458 59.3362 26.9823 60.7456 27.8137C62.155 28.6451 63.3146 29.8407 64.1025 31.275L64.3725 31.7025H52.065V38.25C52.065 39.5628 52.5865 40.8218 53.5148 41.7501C54.4431 42.6784 55.7022 43.2 57.015 43.2L70.56 43.1325Z" stroke="#212121" stroke-width="2" stroke-linecap="round" stroke-linejoin="round"/>
<path d="M65.835 59.1525C65.8349 60.5816 65.4121 61.9787 64.6199 63.1681C63.8278 64.3575 62.7015 65.2861 61.3829 65.837C60.0643 66.3879 58.6122 66.5365 57.2093 66.2642C55.8064 65.9919 54.5154 65.3107 53.4987 64.3065C52.482 63.3022 51.785 62.0197 51.4953 60.6203C51.2057 59.2209 51.3364 57.7671 51.871 56.4418C52.4056 55.1165 53.3201 53.9789 54.4997 53.1721C55.6792 52.3652 57.071 51.9253 58.5 51.9075C59.4589 51.8956 60.4107 52.0742 61.3002 52.433C62.1896 52.7917 62.9989 53.3235 63.6812 53.9975C64.3636 54.6714 64.9053 55.4741 65.275 56.3591C65.6447 57.244 65.835 58.1935 65.835 59.1525V59.1525Z" stroke="#212121" stroke-width="2" stroke-linecap="round" stroke-linejoin="round"/>
<path d="M55.6876 59.1526C55.6879 59.7304 55.8606 60.295 56.1837 60.7741C56.5068 61.2531 56.9655 61.6249 57.5011 61.8416C58.0368 62.0584 58.6249 62.1104 59.1903 61.9909C59.7556 61.8714 60.2724 61.5859 60.6745 61.171C61.0766 60.756 61.3457 60.2304 61.4474 59.6616C61.549 59.0928 61.4785 58.5066 61.245 57.978C61.0114 57.4495 60.6254 57.0027 60.1364 56.6949C59.6474 56.387 59.0777 56.2321 58.5001 56.2501C57.7441 56.2678 57.0254 56.5821 56.4992 57.1251C55.973 57.6682 55.6815 58.3964 55.6876 59.1526V59.1526Z" stroke="#212121" stroke-width="2" stroke-linecap="round" stroke-linejoin="round"/>
<path d="M17.7526 66.3975C21.7539 66.3975 24.9976 63.1538 24.9976 59.1525C24.9976 55.1512 21.7539 51.9075 17.7526 51.9075C13.7513 51.9075 10.5076 55.1512 10.5076 59.1525C10.5076 63.1538 13.7513 66.3975 17.7526 66.3975Z" stroke="#212121" stroke-width="2" stroke-linecap="round" stroke-linejoin="round" stroke-dasharray="2.4 1.44 12.48 1.44"/>
<path d="M14.8499 59.1525C14.8499 59.7265 15.0202 60.2877 15.3391 60.765C15.658 61.2423 16.1113 61.6143 16.6417 61.834C17.1721 62.0537 17.7557 62.1112 18.3187 61.9992C18.8817 61.8872 19.3989 61.6108 19.8048 61.2048C20.2107 60.7989 20.4872 60.2817 20.5992 59.7187C20.7112 59.1557 20.6537 58.5721 20.434 58.0417C20.2143 57.5114 19.8423 57.0581 19.365 56.7391C18.8877 56.4202 18.3265 56.25 17.7524 56.25C17.3704 56.247 16.9917 56.32 16.6382 56.4648C16.2847 56.6096 15.9635 56.8233 15.6934 57.0934C15.4233 57.3635 15.2096 57.6847 15.0648 58.0382C14.92 58.3917 14.8469 58.7705 14.8499 59.1525Z" stroke="#212121" stroke-width="2" stroke-linecap="round" stroke-linejoin="round"/>
<path d="M70.5601 42.0525V43.1325H57.0601C55.7473 43.1325 54.4882 42.611 53.5599 41.6827C52.6316 40.7544 52.1101 39.4953 52.1101 38.1825V31.7025H64.3501L70.5601 42.0525Z" stroke="#212121" stroke-width="2" stroke-linecap="round" stroke-linejoin="round" stroke-dasharray="4.32 1.44 12.48 1.44"/>
<path d="M18.675 18.225L21.5325 21.06L27.3375 15.2775" stroke="white" stroke-width="2" stroke-linecap="round" stroke-linejoin="round"/>
</svg>
