<svg width="30" height="30" viewBox="0 0 30 30" fill="none" xmlns="http://www.w3.org/2000/svg">
<path d="M17.1279 9.44035C17.968 9.60425 18.74 10.0151 19.3453 10.6203C19.9505 11.2256 20.3613 11.9976 20.5252 12.8377M17.1279 6C18.8733 6.19389 20.5008 6.97549 21.7433 8.21645C22.9859 9.45741 23.7695 11.084 23.9656 12.8291M23.1055 19.6926V22.2728C23.1065 22.5124 23.0574 22.7495 22.9615 22.969C22.8655 23.1884 22.7247 23.3854 22.5482 23.5474C22.3717 23.7093 22.1633 23.8326 21.9364 23.9093C21.7095 23.9861 21.4691 24.0146 21.2305 23.993C18.5839 23.7054 16.0416 22.8011 13.808 21.3526C11.7299 20.032 9.96797 18.2701 8.64745 16.192C7.19388 13.9482 6.2893 11.3936 6.00698 8.73508C5.98549 8.49723 6.01375 8.25752 6.08998 8.0312C6.16621 7.80488 6.28872 7.59691 6.44972 7.42054C6.61073 7.24416 6.80669 7.10324 7.02514 7.00675C7.24359 6.91026 7.47974 6.86031 7.71855 6.86009H10.2988C10.7162 6.85598 11.1209 7.00379 11.4374 7.27597C11.7539 7.54815 11.9606 7.92612 12.019 8.33944C12.1279 9.16518 12.3299 9.97595 12.621 10.7563C12.7368 11.0641 12.7618 11.3987 12.6932 11.7203C12.6246 12.042 12.4653 12.3372 12.234 12.5711L11.1417 13.6634C12.3661 15.8166 14.149 17.5995 16.3022 18.8239L17.3945 17.7316C17.6284 17.5003 17.9236 17.341 18.2453 17.2724C18.5669 17.2038 18.9015 17.2288 19.2093 17.3445C19.9896 17.6357 20.8004 17.8377 21.6262 17.9466C22.044 18.0055 22.4255 18.216 22.6983 18.5379C22.971 18.8598 23.116 19.2708 23.1055 19.6926Z" stroke="#F0434E" stroke-width="1.5" stroke-linecap="round" stroke-linejoin="round"/>
</svg>
