<svg width="30" height="30" viewBox="0 0 30 30" fill="none" xmlns="http://www.w3.org/2000/svg">
<path d="M9 24C10.1046 24 11 23.1046 11 22C11 20.8954 10.1046 20 9 20C7.89543 20 7 20.8954 7 22C7 23.1046 7.89543 24 9 24Z" stroke="#F0434E" stroke-width="1.5" stroke-linecap="round" stroke-linejoin="round"/>
<path d="M20.9999 10C22.1044 10 22.9999 9.10457 22.9999 8C22.9999 6.89543 22.1044 6 20.9999 6C19.8953 6 18.9999 6.89543 18.9999 8C18.9999 9.10457 19.8953 10 20.9999 10Z" stroke="#F0434E" stroke-width="1.5" stroke-linecap="round" stroke-linejoin="round"/>
<path d="M14.9996 22.0001H19.4996C20.4279 22.0001 21.3181 21.6314 21.9745 20.975C22.6309 20.3186 22.9996 19.4284 22.9996 18.5001C22.9996 17.5719 22.6309 16.6816 21.9745 16.0252C21.3181 15.3689 20.4279 15.0001 19.4996 15.0001H11.4996C10.5714 15.0001 9.68115 14.6314 9.02477 13.975C8.36839 13.3186 7.99965 12.4284 7.99965 11.5001C7.99965 10.5719 8.36839 9.68162 9.02477 9.02525C9.68115 8.36887 10.5714 8.00012 11.4996 8.00012H14.9996" stroke="#F0434E" stroke-width="1.5" stroke-linecap="round" stroke-linejoin="round"/>
</svg>
